<svg width="343" height="36" viewBox="0 0 343 36" fill="none" xmlns="http://www.w3.org/2000/svg">
<path d="M104.87 26.168C103.75 26.168 102.679 26 101.657 25.664C100.635 25.314 99.8301 24.866 99.2421 24.32L100.019 22.682C100.579 23.172 101.293 23.578 102.161 23.9C103.029 24.222 103.932 24.383 104.87 24.383C105.724 24.383 106.417 24.285 106.949 24.089C107.481 23.893 107.873 23.627 108.125 23.291C108.377 22.941 108.503 22.549 108.503 22.115C108.503 21.611 108.335 21.205 107.999 20.897C107.677 20.589 107.25 20.344 106.718 20.162C106.2 19.966 105.626 19.798 104.996 19.658C104.366 19.518 103.729 19.357 103.085 19.175C102.455 18.979 101.874 18.734 101.342 18.44C100.824 18.146 100.404 17.754 100.082 17.264C99.7601 16.76 99.5991 16.116 99.5991 15.332C99.5991 14.576 99.7951 13.883 100.187 13.253C100.593 12.609 101.209 12.098 102.035 11.72C102.875 11.328 103.939 11.132 105.227 11.132C106.081 11.132 106.928 11.244 107.768 11.468C108.608 11.692 109.336 12.014 109.952 12.434L109.259 14.114C108.629 13.694 107.964 13.393 107.264 13.211C106.564 13.015 105.885 12.917 105.227 12.917C104.401 12.917 103.722 13.022 103.19 13.232C102.658 13.442 102.266 13.722 102.014 14.072C101.776 14.422 101.657 14.814 101.657 15.248C101.657 15.766 101.818 16.179 102.14 16.487C102.476 16.795 102.903 17.04 103.421 17.222C103.953 17.404 104.534 17.572 105.164 17.726C105.794 17.866 106.424 18.027 107.054 18.209C107.698 18.391 108.279 18.629 108.797 18.923C109.329 19.217 109.756 19.609 110.078 20.099C110.4 20.589 110.561 21.219 110.561 21.989C110.561 22.731 110.358 23.424 109.952 24.068C109.546 24.698 108.916 25.209 108.062 25.601C107.222 25.979 106.158 26.168 104.87 26.168ZM119.068 14.765C119.978 14.765 120.776 14.94 121.462 15.29C122.162 15.64 122.708 16.172 123.1 16.886C123.492 17.6 123.688 18.503 123.688 19.595V26H121.672V19.826C121.672 18.748 121.406 17.936 120.874 17.39C120.356 16.844 119.621 16.571 118.669 16.571C117.955 16.571 117.332 16.711 116.8 16.991C116.268 17.271 115.855 17.684 115.561 18.23C115.281 18.776 115.141 19.455 115.141 20.267V26H113.125V10.418H115.141V17.873L114.742 17.075C115.106 16.347 115.666 15.78 116.422 15.374C117.178 14.968 118.06 14.765 119.068 14.765ZM131.976 26.126C130.856 26.126 129.862 25.881 128.994 25.391C128.126 24.901 127.44 24.229 126.936 23.375C126.432 22.507 126.18 21.527 126.18 20.435C126.18 19.329 126.432 18.349 126.936 17.495C127.44 16.641 128.126 15.976 128.994 15.5C129.862 15.01 130.856 14.765 131.976 14.765C133.082 14.765 134.069 15.01 134.937 15.5C135.819 15.976 136.505 16.641 136.995 17.495C137.499 18.335 137.751 19.315 137.751 20.435C137.751 21.541 137.499 22.521 136.995 23.375C136.505 24.229 135.819 24.901 134.937 25.391C134.069 25.881 133.082 26.126 131.976 26.126ZM131.976 24.362C132.69 24.362 133.327 24.201 133.887 23.879C134.461 23.557 134.909 23.102 135.231 22.514C135.553 21.912 135.714 21.219 135.714 20.435C135.714 19.637 135.553 18.951 135.231 18.377C134.909 17.789 134.461 17.334 133.887 17.012C133.327 16.69 132.69 16.529 131.976 16.529C131.262 16.529 130.625 16.69 130.065 17.012C129.505 17.334 129.057 17.789 128.721 18.377C128.385 18.951 128.217 19.637 128.217 20.435C128.217 21.219 128.385 21.912 128.721 22.514C129.057 23.102 129.505 23.557 130.065 23.879C130.625 24.201 131.262 24.362 131.976 24.362ZM146.23 26.126C145.306 26.126 144.459 25.916 143.689 25.496C142.933 25.062 142.324 24.425 141.862 23.585C141.414 22.745 141.19 21.695 141.19 20.435C141.19 19.175 141.407 18.125 141.841 17.285C142.289 16.445 142.891 15.815 143.647 15.395C144.417 14.975 145.278 14.765 146.23 14.765C147.322 14.765 148.288 15.003 149.128 15.479C149.968 15.955 150.633 16.62 151.123 17.474C151.613 18.314 151.858 19.301 151.858 20.435C151.858 21.569 151.613 22.563 151.123 23.417C150.633 24.271 149.968 24.936 149.128 25.412C148.288 25.888 147.322 26.126 146.23 26.126ZM140.329 30.074V14.87H142.261V17.873L142.135 20.456L142.345 23.039V30.074H140.329ZM146.062 24.362C146.776 24.362 147.413 24.201 147.973 23.879C148.547 23.557 148.995 23.102 149.317 22.514C149.653 21.912 149.821 21.219 149.821 20.435C149.821 19.637 149.653 18.951 149.317 18.377C148.995 17.789 148.547 17.334 147.973 17.012C147.413 16.69 146.776 16.529 146.062 16.529C145.362 16.529 144.725 16.69 144.151 17.012C143.591 17.334 143.143 17.789 142.807 18.377C142.485 18.951 142.324 19.637 142.324 20.435C142.324 21.219 142.485 21.912 142.807 22.514C143.143 23.102 143.591 23.557 144.151 23.879C144.725 24.201 145.362 24.362 146.062 24.362ZM160.335 26.126C159.411 26.126 158.564 25.916 157.794 25.496C157.038 25.062 156.429 24.425 155.967 23.585C155.519 22.745 155.295 21.695 155.295 20.435C155.295 19.175 155.512 18.125 155.946 17.285C156.394 16.445 156.996 15.815 157.752 15.395C158.522 14.975 159.383 14.765 160.335 14.765C161.427 14.765 162.393 15.003 163.233 15.479C164.073 15.955 164.738 16.62 165.228 17.474C165.718 18.314 165.963 19.301 165.963 20.435C165.963 21.569 165.718 22.563 165.228 23.417C164.738 24.271 164.073 24.936 163.233 25.412C162.393 25.888 161.427 26.126 160.335 26.126ZM154.434 30.074V14.87H156.366V17.873L156.24 20.456L156.45 23.039V30.074H154.434ZM160.167 24.362C160.881 24.362 161.518 24.201 162.078 23.879C162.652 23.557 163.1 23.102 163.422 22.514C163.758 21.912 163.926 21.219 163.926 20.435C163.926 19.637 163.758 18.951 163.422 18.377C163.1 17.789 162.652 17.334 162.078 17.012C161.518 16.69 160.881 16.529 160.167 16.529C159.467 16.529 158.83 16.69 158.256 17.012C157.696 17.334 157.248 17.789 156.912 18.377C156.59 18.951 156.429 19.637 156.429 20.435C156.429 21.219 156.59 21.912 156.912 22.514C157.248 23.102 157.696 23.557 158.256 23.879C158.83 24.201 159.467 24.362 160.167 24.362ZM168.538 26V14.87H170.554V26H168.538ZM169.546 12.728C169.154 12.728 168.825 12.602 168.559 12.35C168.307 12.098 168.181 11.79 168.181 11.426C168.181 11.048 168.307 10.733 168.559 10.481C168.825 10.229 169.154 10.103 169.546 10.103C169.938 10.103 170.26 10.229 170.512 10.481C170.778 10.719 170.911 11.02 170.911 11.384C170.911 11.762 170.785 12.084 170.533 12.35C170.281 12.602 169.952 12.728 169.546 12.728ZM180.136 14.765C181.046 14.765 181.844 14.94 182.53 15.29C183.23 15.64 183.776 16.172 184.168 16.886C184.56 17.6 184.756 18.503 184.756 19.595V26H182.74V19.826C182.74 18.748 182.474 17.936 181.942 17.39C181.424 16.844 180.689 16.571 179.737 16.571C179.023 16.571 178.4 16.711 177.868 16.991C177.336 17.271 176.923 17.684 176.629 18.23C176.349 18.776 176.209 19.455 176.209 20.267V26H174.193V14.87H176.125V17.873L175.81 17.075C176.174 16.347 176.734 15.78 177.49 15.374C178.246 14.968 179.128 14.765 180.136 14.765ZM193.149 30.2C192.127 30.2 191.133 30.053 190.167 29.759C189.215 29.479 188.438 29.073 187.836 28.541L188.802 26.987C189.32 27.435 189.957 27.785 190.713 28.037C191.469 28.303 192.26 28.436 193.086 28.436C194.402 28.436 195.368 28.128 195.984 27.512C196.6 26.896 196.908 25.958 196.908 24.698V22.346L197.118 20.141L197.013 17.915V14.87H198.924V24.488C198.924 26.448 198.434 27.89 197.454 28.814C196.474 29.738 195.039 30.2 193.149 30.2ZM192.897 25.538C191.819 25.538 190.853 25.314 189.999 24.866C189.159 24.404 188.487 23.767 187.983 22.955C187.493 22.143 187.248 21.205 187.248 20.141C187.248 19.063 187.493 18.125 187.983 17.327C188.487 16.515 189.159 15.885 189.999 15.437C190.853 14.989 191.819 14.765 192.897 14.765C193.849 14.765 194.717 14.961 195.501 15.353C196.285 15.731 196.908 16.319 197.37 17.117C197.846 17.915 198.084 18.923 198.084 20.141C198.084 21.345 197.846 22.346 197.37 23.144C196.908 23.942 196.285 24.544 195.501 24.95C194.717 25.342 193.849 25.538 192.897 25.538ZM193.128 23.774C193.87 23.774 194.528 23.62 195.102 23.312C195.676 23.004 196.124 22.577 196.446 22.031C196.782 21.485 196.95 20.855 196.95 20.141C196.95 19.427 196.782 18.797 196.446 18.251C196.124 17.705 195.676 17.285 195.102 16.991C194.528 16.683 193.87 16.529 193.128 16.529C192.386 16.529 191.721 16.683 191.133 16.991C190.559 17.285 190.104 17.705 189.768 18.251C189.446 18.797 189.285 19.427 189.285 20.141C189.285 20.855 189.446 21.485 189.768 22.031C190.104 22.577 190.559 23.004 191.133 23.312C191.721 23.62 192.386 23.774 193.128 23.774ZM212.847 26.126C211.713 26.126 210.698 25.881 209.802 25.391C208.92 24.901 208.227 24.229 207.723 23.375C207.219 22.521 206.967 21.541 206.967 20.435C206.967 19.329 207.219 18.349 207.723 17.495C208.227 16.641 208.92 15.976 209.802 15.5C210.698 15.01 211.713 14.765 212.847 14.765C213.855 14.765 214.751 14.968 215.535 15.374C216.333 15.766 216.949 16.354 217.383 17.138L215.85 18.125C215.486 17.579 215.038 17.18 214.506 16.928C213.988 16.662 213.428 16.529 212.826 16.529C212.098 16.529 211.447 16.69 210.873 17.012C210.299 17.334 209.844 17.789 209.508 18.377C209.172 18.951 209.004 19.637 209.004 20.435C209.004 21.233 209.172 21.926 209.508 22.514C209.844 23.102 210.299 23.557 210.873 23.879C211.447 24.201 212.098 24.362 212.826 24.362C213.428 24.362 213.988 24.236 214.506 23.984C215.038 23.718 215.486 23.312 215.85 22.766L217.383 23.732C216.949 24.502 216.333 25.097 215.535 25.517C214.751 25.923 213.855 26.126 212.847 26.126ZM226.692 26V23.648L226.587 23.207V19.196C226.587 18.342 226.335 17.684 225.831 17.222C225.341 16.746 224.599 16.508 223.605 16.508C222.947 16.508 222.303 16.62 221.673 16.844C221.043 17.054 220.511 17.341 220.077 17.705L219.237 16.193C219.811 15.731 220.497 15.381 221.295 15.143C222.107 14.891 222.954 14.765 223.836 14.765C225.362 14.765 226.538 15.136 227.364 15.878C228.19 16.62 228.603 17.754 228.603 19.28V26H226.692ZM223.038 26.126C222.212 26.126 221.484 25.986 220.854 25.706C220.238 25.426 219.762 25.041 219.426 24.551C219.09 24.047 218.922 23.48 218.922 22.85C218.922 22.248 219.062 21.702 219.342 21.212C219.636 20.722 220.105 20.33 220.749 20.036C221.407 19.742 222.289 19.595 223.395 19.595H226.923V21.044H223.479C222.471 21.044 221.792 21.212 221.442 21.548C221.092 21.884 220.917 22.29 220.917 22.766C220.917 23.312 221.134 23.753 221.568 24.089C222.002 24.411 222.604 24.572 223.374 24.572C224.13 24.572 224.788 24.404 225.348 24.068C225.922 23.732 226.335 23.242 226.587 22.598L226.986 23.984C226.72 24.642 226.251 25.167 225.579 25.559C224.907 25.937 224.06 26.126 223.038 26.126ZM232.124 26V14.87H234.056V17.894L233.867 17.138C234.175 16.368 234.693 15.78 235.421 15.374C236.149 14.968 237.045 14.765 238.109 14.765V16.718C238.025 16.704 237.941 16.697 237.857 16.697C237.787 16.697 237.717 16.697 237.647 16.697C236.569 16.697 235.715 17.019 235.085 17.663C234.455 18.307 234.14 19.238 234.14 20.456V26H232.124ZM244.657 26.126C243.537 26.126 242.669 25.825 242.053 25.223C241.437 24.621 241.129 23.76 241.129 22.64V12.434H243.145V22.556C243.145 23.158 243.292 23.62 243.586 23.942C243.894 24.264 244.328 24.425 244.888 24.425C245.518 24.425 246.043 24.25 246.463 23.9L247.093 25.349C246.785 25.615 246.414 25.811 245.98 25.937C245.56 26.063 245.119 26.126 244.657 26.126ZM239.239 16.529V14.87H246.337V16.529H239.239Z" fill="black"/>
<path d="M0.292892 19.2929C-0.0976315 19.6834 -0.0976315 20.3166 0.292892 20.7071L6.65685 27.0711C7.04738 27.4616 7.68054 27.4616 8.07107 27.0711C8.46159 26.6805 8.46159 26.0474 8.07107 25.6569L2.41421 20L8.07107 14.3431C8.46159 13.9526 8.46159 13.3195 8.07107 12.9289C7.68054 12.5384 7.04738 12.5384 6.65685 12.9289L0.292892 19.2929ZM24 19L1 19V21L24 21V19Z" fill="black"/>
<g style="mix-blend-mode:darken">
<path d="M324.75 17.25H327.25V13.5H331V11H327.25V7.25H324.75V11H321V13.5H324.75V17.25ZM319.75 28.5C318.375 28.5 317.263 29.625 317.263 31C317.263 32.375 318.375 33.5 319.75 33.5C321.125 33.5 322.25 32.375 322.25 31C322.25 29.625 321.125 28.5 319.75 28.5ZM332.25 28.5C330.875 28.5 329.763 29.625 329.763 31C329.763 32.375 330.875 33.5 332.25 33.5C333.625 33.5 334.75 32.375 334.75 31C334.75 29.625 333.625 28.5 332.25 28.5ZM319.963 24.4375L320 24.2875L321.125 22.25H330.438C331.375 22.25 332.2 21.7375 332.625 20.9625L337.45 12.2L335.275 11H335.263L333.887 13.5L330.438 19.75H321.662L321.5 19.4125L318.7 13.5L317.512 11L316.338 8.5H312.25V11H314.75L319.25 20.4875L317.562 23.55C317.363 23.9 317.25 24.3125 317.25 24.75C317.25 26.125 318.375 27.25 319.75 27.25H334.75V24.75H320.275C320.112 24.75 319.963 24.6125 319.963 24.4375Z" fill="black" fill-opacity="0.8"/>
</g>
<circle cx="339" cy="4" r="4" fill="#FF0000"/>
</svg>
